<svg width="40" height="40" viewBox="0 0 40 40" fill="none" xmlns="http://www.w3.org/2000/svg">
<path fill-rule="evenodd" clip-rule="evenodd" d="M31.4188 10.7516C31.5614 10.6092 31.6745 10.4402 31.7517 10.2541C31.8289 10.0681 31.8687 9.86862 31.8688 9.66718C31.8689 9.46574 31.8294 9.26625 31.7524 9.08009C31.6754 8.89394 31.5625 8.72477 31.4202 8.58224C31.2778 8.43971 31.1088 8.32662 30.9227 8.24942C30.7367 8.17221 30.5372 8.13241 30.3358 8.13229C30.1344 8.13217 29.9349 8.17172 29.7487 8.24869C29.5625 8.32567 29.3934 8.43855 29.2508 8.58091L20.0002 17.8316L10.7522 8.58091C10.4643 8.29306 10.0739 8.13135 9.66685 8.13135C9.25977 8.13135 8.86937 8.29306 8.58152 8.58091C8.29367 8.86876 8.13196 9.25916 8.13196 9.66624C8.13196 10.0733 8.29367 10.4637 8.58152 10.7516L17.8322 19.9996L8.58152 29.2476C8.43899 29.3901 8.32593 29.5593 8.24879 29.7455C8.17166 29.9318 8.13196 30.1313 8.13196 30.3329C8.13196 30.5345 8.17166 30.7341 8.24879 30.9203C8.32593 31.1065 8.43899 31.2757 8.58152 31.4182C8.86937 31.7061 9.25977 31.8678 9.66685 31.8678C9.86842 31.8678 10.068 31.8281 10.2542 31.751C10.4405 31.6738 10.6097 31.5608 10.7522 31.4182L20.0002 22.1676L29.2508 31.4182C29.5387 31.7057 29.929 31.8671 30.3358 31.8669C30.7426 31.8666 31.1327 31.7048 31.4202 31.4169C31.7077 31.1291 31.869 30.7388 31.8688 30.332C31.8685 29.9251 31.7067 29.5351 31.4188 29.2476L22.1682 19.9996L31.4188 10.7516Z" fill="#FF611E"/>
</svg>
