<svg width="38" height="45" viewBox="0 0 38 45" fill="none" xmlns="http://www.w3.org/2000/svg">
<g opacity="0.5" clip-path="url(#clip0_34_793)">
<path fill-rule="evenodd" clip-rule="evenodd" d="M36.1064 13.4921V39.8644C36.1064 41.337 35.563 42.7491 34.5957 43.7904C33.6283 44.8315 32.3163 45.4165 30.9484 45.4165H28.3694V42.6405H30.9484C31.6324 42.6405 32.2884 42.348 32.7721 41.8274C33.2558 41.3068 33.5274 40.6007 33.5274 39.8644V13.4921H28.3694C27.3433 13.4921 26.3594 13.0534 25.6339 12.2725C24.9084 11.4916 24.5008 10.4325 24.5008 9.32809V3.77603H10.3161C9.63213 3.77603 8.97614 4.06851 8.49248 4.58911C8.00882 5.10972 7.7371 5.81581 7.7371 6.55206V31.5364H5.15806V6.55206C5.15806 5.07957 5.7015 3.66738 6.66882 2.62617C7.63614 1.58495 8.94813 1 10.3161 1H24.5008L36.1064 13.4921ZM8.76097 42.199C8.77573 42.6364 8.87538 43.0657 9.05349 43.4592C9.2316 43.8527 9.48424 44.2017 9.79516 44.4838C10.1304 44.7835 10.5405 45.0168 11.0279 45.1833C11.518 45.3526 12.0879 45.4359 12.743 45.4359C13.6146 45.4359 14.3524 45.2889 14.9584 44.9974C15.567 44.7059 16.0313 44.2977 16.3484 43.7758C16.6709 43.2512 16.8308 42.6433 16.8308 41.9548C16.8308 41.333 16.7146 40.8166 16.4852 40.4002C16.2491 39.9843 15.9155 39.6425 15.518 39.4092C15.0613 39.1375 14.5692 38.941 14.0582 38.8262L12.4567 38.4265C12.0792 38.3518 11.7227 38.1846 11.4148 37.9378C11.2971 37.8402 11.2023 37.7143 11.1378 37.5702C11.0733 37.4261 11.041 37.2678 11.0434 37.1079C11.0434 36.6748 11.2033 36.3194 11.5205 36.0419C11.8429 35.7615 12.2839 35.6199 12.841 35.6199C13.2098 35.6199 13.527 35.6838 13.7952 35.8086C14.0421 35.9171 14.2602 36.0897 14.4296 36.3112C14.5885 36.5172 14.6951 36.7639 14.7391 37.0274H16.6734C16.6412 36.462 16.4626 35.9177 16.1576 35.4561C15.8317 34.9578 15.386 34.5643 14.8681 34.3179C14.2348 34.0189 13.5477 33.8747 12.8565 33.896C12.1008 33.896 11.4354 34.0348 10.8551 34.3124C10.2749 34.5872 9.82353 34.9787 9.496 35.4811C9.16846 35.9864 9.00598 36.5777 9.00598 37.255C9.00598 37.813 9.10914 38.2988 9.32062 38.7096C9.5321 39.1233 9.83643 39.4592 10.2284 39.7285C10.6205 39.9922 11.0847 40.192 11.6185 40.3197L13.2124 40.7195C13.7462 40.8554 14.1434 41.0332 14.4065 41.2553C14.535 41.3607 14.6378 41.4981 14.706 41.6557C14.7744 41.8134 14.806 41.9865 14.7985 42.1602C14.8035 42.4464 14.7269 42.7273 14.5792 42.9652C14.4132 43.209 14.1847 43.3952 13.9216 43.501C13.6353 43.6315 13.2795 43.6954 12.8565 43.6954C12.5547 43.6954 12.2814 43.6593 12.0312 43.5843C11.8032 43.5163 11.5871 43.4084 11.3916 43.265C11.2199 43.1455 11.0729 42.989 10.9598 42.8057C10.8466 42.6223 10.7697 42.4158 10.7339 42.199H8.76097ZM2.0787 39.0122C2.0787 38.3238 2.16639 37.7352 2.34176 37.255C2.49473 36.8115 2.76562 36.4263 3.12063 36.1473C3.48247 35.8869 3.91057 35.754 4.34567 35.7671C4.73252 35.7671 5.07554 35.8558 5.37212 36.0364C5.66277 36.2034 5.90537 36.4531 6.07362 36.7581C6.25337 37.0792 6.35946 37.4417 6.3831 37.8158H8.35606V37.6159C8.33895 37.1045 8.22328 36.6025 8.01639 36.1419C7.80949 35.6812 7.51591 35.2718 7.15423 34.9398C6.78373 34.6018 6.35526 34.3453 5.89309 34.1847C5.38982 34.0013 4.8615 33.9103 4.33019 33.9155C3.41206 33.9155 2.62803 34.1209 1.9807 34.5344C1.33594 34.9454 0.845923 35.531 0.50549 36.289C0.170216 37.0496 0 37.9545 0 39.0066V40.3891C0 41.4412 0.165058 42.3435 0.497753 43.0985C0.835606 43.8508 1.3282 44.431 1.97296 44.8363C2.61772 45.2389 3.40174 45.4387 4.33019 45.4387C5.08585 45.4387 5.75898 45.2861 6.35474 44.9835C6.94791 44.6781 7.42245 44.2616 7.7732 43.7232C8.129 43.1719 8.33121 42.5228 8.35606 41.8521V41.6411H6.38568C6.36136 41.9985 6.25694 42.3443 6.08136 42.6489C5.90948 42.9435 5.6672 43.1833 5.37986 43.3428C5.05783 43.5105 4.70332 43.5933 4.34567 43.5843C3.90994 43.5977 3.48053 43.47 3.11289 43.2178C2.75972 42.9472 2.49091 42.5679 2.34176 42.1297C2.15319 41.5724 2.06394 40.9819 2.0787 40.3891V39.0149V39.0122ZM17.4858 43.4456C17.3147 43.0545 17.2174 42.6309 17.1995 42.199H19.1699C19.2057 42.4158 19.2827 42.6223 19.3958 42.8057C19.5089 42.989 19.6559 43.1455 19.8276 43.265C20.0081 43.4011 20.2248 43.5066 20.4724 43.5815C20.7173 43.6593 20.9907 43.6954 21.295 43.6954C21.718 43.6954 22.0714 43.6315 22.3602 43.501C22.6233 43.3952 22.8518 43.209 23.0178 42.9652C23.1653 42.7272 23.2417 42.4464 23.2371 42.1602C23.2444 41.9862 23.2122 41.813 23.1436 41.6553C23.0748 41.4977 22.9715 41.3604 22.8426 41.2553C22.582 41.0332 22.1822 40.8554 21.6484 40.7195L20.0546 40.3224C19.5633 40.2105 19.0933 40.0096 18.6644 39.7285C18.2863 39.4784 17.9745 39.1274 17.7592 38.7096C17.5398 38.2619 17.4307 37.761 17.4419 37.255C17.4419 36.5777 17.6045 35.9864 17.9319 35.4811C18.2595 34.9787 18.7135 34.5872 19.2912 34.3096C19.8714 34.032 20.5394 33.896 21.295 33.896C22.079 33.896 22.7497 34.0348 23.3041 34.3179C23.8638 34.6011 24.2945 34.9815 24.5936 35.4561C24.9031 35.928 25.076 36.4527 25.1095 37.0274H23.1752C23.131 36.7639 23.0244 36.5172 22.8657 36.3112C22.6961 36.0897 22.4782 35.9171 22.2313 35.8086C21.9287 35.676 21.6038 35.6117 21.277 35.6199C20.7199 35.6199 20.2789 35.7587 19.9566 36.0419C19.8054 36.167 19.6837 36.3288 19.6013 36.5139C19.5188 36.6991 19.478 36.9025 19.482 37.1079C19.482 37.4437 19.6032 37.7185 19.8507 37.9406C20.1589 38.1865 20.5155 38.3526 20.8927 38.4265L22.4943 38.8234C23.0539 38.9622 23.5414 39.1566 23.9541 39.4092C24.3667 39.659 24.689 39.9922 24.9211 40.403C25.1532 40.8139 25.2694 41.333 25.2694 41.9575C25.2694 42.6433 25.1068 43.2512 24.7845 43.7786C24.4412 44.3218 23.958 44.7454 23.3943 44.9974C22.7908 45.2889 22.0532 45.4359 21.1817 45.4359C20.5266 45.4359 19.9539 45.3526 19.4665 45.1861C19.0174 45.041 18.5988 44.8035 18.2338 44.4866C17.9189 44.2004 17.664 43.8455 17.4858 43.4456Z" fill="black"/>
</g>
<defs>
<clipPath id="clip0_34_793">
<rect width="37.0323" height="44.9677" fill="white"/>
</clipPath>
</defs>
</svg>
