<svg width="47" height="47" viewBox="0 0 47 47" fill="none" xmlns="http://www.w3.org/2000/svg">
<g opacity="0.5">
<path d="M6.45472 40.3456L18.9176 27.8827M34.6116 22.3407L30.881 33.5325C30.8215 33.7119 30.7195 33.8743 30.5839 34.0059C30.4482 34.1375 30.2827 34.2344 30.1016 34.2884L7.23218 41.0858C7.02615 41.147 6.80727 41.1505 6.59939 41.096C6.3915 41.0414 6.20255 40.9309 6.05312 40.7764C5.90369 40.6219 5.79949 40.4294 5.75186 40.2198C5.70424 40.0102 5.71501 39.7916 5.78301 39.5877L13.209 17.3136C13.2622 17.1537 13.3492 17.0071 13.4641 16.8837C13.579 16.7604 13.7191 16.6632 13.8748 16.5988L24.4244 12.2552C24.6389 12.1667 24.8748 12.1436 25.1023 12.1889C25.3299 12.2342 25.539 12.3459 25.7032 12.5098L34.3277 21.1363C34.4824 21.2907 34.5909 21.4853 34.641 21.6981C34.6912 21.9108 34.681 22.1334 34.6116 22.3407V22.3407Z" stroke="#494C50" stroke-width="2.9375" stroke-linecap="round" stroke-linejoin="round"/>
<path d="M34.8423 21.6514L40.3804 16.1113C41.1147 15.3768 41.5272 14.3807 41.5272 13.3422C41.5272 12.3036 41.1147 11.3076 40.3804 10.5731L36.2288 6.4175C35.865 6.05364 35.4332 5.765 34.9579 5.56807C34.4826 5.37114 33.9732 5.26978 33.4587 5.26978C32.9442 5.26978 32.4348 5.37114 31.9595 5.56807C31.4842 5.765 31.0523 6.05364 30.6886 6.4175L25.1505 11.9576M23.0707 23.7272C22.7979 23.4545 22.4739 23.2382 22.1175 23.0906C21.761 22.9431 21.379 22.8672 20.9932 22.8673C20.6074 22.8673 20.2254 22.9434 19.869 23.0911C19.5126 23.2389 19.1888 23.4553 18.9161 23.7282C18.6434 24.001 18.4271 24.325 18.2795 24.6814C18.132 25.0379 18.0561 25.4199 18.0562 25.8057C18.0562 26.1915 18.1323 26.5735 18.28 26.9299C18.4278 27.2863 18.6442 27.6101 18.9171 27.8828C19.4682 28.4336 20.2155 28.7429 20.9946 28.7428C21.7737 28.7426 22.5209 28.4329 23.0717 27.8818C23.6225 27.3308 23.9318 26.5834 23.9316 25.8043C23.9315 25.0252 23.6218 24.278 23.0707 23.7272Z" stroke="#494C50" stroke-width="2.9375" stroke-linecap="round" stroke-linejoin="round"/>
</g>
</svg>
