<svg width="32" height="51" viewBox="0 0 32 51" fill="none" xmlns="http://www.w3.org/2000/svg">
<g opacity="0.5" clip-path="url(#clip0_34_798)">
<path fill-rule="evenodd" clip-rule="evenodd" d="M8.68585 0.926086C3.87182 0.926086 0.000124935 5.04423 0.000124935 10.0891C0.000124935 13.1561 1.43234 15.8801 3.63376 17.5431C2.49917 18.4098 1.57951 19.5355 0.948501 20.83C0.317491 22.1244 -0.00731338 23.5516 0.000124935 24.9971C0.000124935 28.0661 1.43234 30.7881 3.63376 32.451C2.49917 33.3178 1.57951 34.4435 0.948501 35.7379C0.317491 37.0323 -0.00731338 38.4595 0.000124935 39.9051C0.000124935 44.9499 3.87182 49.068 8.68585 49.068C13.4979 49.068 17.3716 44.9499 17.3716 39.9051V32.1582C18.8929 33.4515 20.8107 34.1606 22.7915 34.162C27.6056 34.16 31.4773 30.0419 31.4773 24.9971C31.4852 23.5515 31.1605 22.1241 30.5295 20.8296C29.8985 19.5351 28.9785 18.4094 27.8436 17.5431C28.9783 16.6763 29.8979 15.5507 30.5289 14.2563C31.1599 12.9618 31.4847 11.5346 31.4773 10.0891C31.4773 5.04423 27.6056 0.926086 22.7915 0.926086H8.68585ZM3.26392 10.0891C3.26392 6.89769 5.70732 4.34216 8.68585 4.34216H14.1059V15.8361H8.68585C5.70732 15.8361 3.26392 13.2785 3.26392 10.0891ZM22.7915 15.8341H17.3716V4.34015H22.7915C25.7721 4.34015 28.2134 6.89769 28.2134 10.0891C28.2134 13.2785 25.7721 15.8341 22.7915 15.8341ZM3.26588 24.9971C3.26588 21.8077 5.70929 19.25 8.68782 19.25H14.1078V30.7439H8.68585C5.70536 30.7439 3.26392 28.1865 3.26392 24.9971H3.26588ZM17.3716 24.9971C17.3716 21.8077 19.815 19.25 22.7935 19.25C25.7741 19.25 28.2154 21.8057 28.2154 24.9971C28.2154 28.1865 25.7741 30.7439 22.7935 30.7439C19.815 30.7439 17.3736 28.1884 17.3736 24.9971H17.3716ZM3.26588 39.9051C3.26588 36.7157 5.70929 34.16 8.68782 34.16H14.1078V39.9051C14.1078 43.0964 11.6683 45.6519 8.68782 45.6519C5.70929 45.6519 3.26588 43.0964 3.26588 39.9051Z" fill="black"/>
</g>
<defs>
<clipPath id="clip0_34_798">
<rect width="31.7419" height="50.2581" fill="white"/>
</clipPath>
</defs>
</svg>
