<svg width="351" height="51" viewBox="0 0 351 51" fill="none" xmlns="http://www.w3.org/2000/svg">
<g clip-path="url(#clip0_64_7)">
<path d="M209.285 28.7984C208.755 28.7052 206.975 28.4094 206.453 28.3136C203.641 27.8079 201.233 27.1506 201.233 24.3214C201.233 21.8922 203.78 20.7588 206.949 20.7588C211.665 20.7588 215.801 22.8959 216.273 23.1318L218.859 16.312C217.864 15.7959 213.656 13.5479 207.029 13.5479C200.96 13.5479 193.547 16.735 193.547 24.664C193.547 31.7599 198.617 34.0375 203.504 34.8974C204.179 35.0214 206.3 35.3839 206.907 35.4896C210.193 36.0454 211.999 37.2694 211.999 39.4198C211.999 42.1495 209.435 43.4292 205.553 43.4292C199.339 43.4292 195.692 41.5771 194.639 41.1438L191.775 47.8162C192.664 48.2745 196.907 50.6667 205.185 50.6667C213.219 50.6667 219.665 46.688 219.665 39.2828C219.603 32.3896 214.969 29.7746 209.285 28.7984Z" fill="#4E4E55"/>
<path d="M233.815 1.12921L226.212 5.33494V14.2412H222.209V21.512H226.212V37.2307C226.212 43.9453 228.972 49.9745 238.707 49.9745H241.751V42.6974H240.609C235.824 42.6974 233.815 39.9359 233.815 36.1855V21.512H242.547V14.2412H233.815V1.12921" fill="#4E4E55"/>
<path d="M293.212 20.9402C296.18 20.9402 299.219 22.2896 300.131 25.5547L307.029 22.9307C305.097 16.1016 298.753 13.5479 293.157 13.5479C283.131 13.5479 279.088 19.7746 279.088 25.8266V38.3854C279.088 44.4349 283.131 50.6667 293.157 50.6667C298.753 50.6667 305.097 48.1094 307.029 41.2802L300.131 38.6573C299.219 41.9188 296.18 43.2761 293.212 43.2761C288.047 43.2761 286.677 40.4479 286.677 37.224V26.9855C286.677 23.7651 288.047 20.9402 293.212 20.9402Z" fill="#4E4E55"/>
<path d="M325.721 30.2907L339.935 14.2412H330.585L318.36 28.2307V1.13067H310.751V49.9745H318.36V38.6016L320.856 35.7828L331.743 49.9745H340.867L325.721 30.2907Z" fill="#4E4E55"/>
<path d="M263.815 22.0386H255.909C254.652 22.0386 253.632 23.0599 253.632 24.312V32.8907H245.833V24.312C245.833 18.7479 250.341 14.2412 255.909 14.2412H263.815V22.0386" fill="#E32124"/>
<path d="M257.38 42.176H265.291C266.543 42.176 267.565 41.1563 267.565 39.9V31.324H275.363V39.9C275.363 45.4641 270.853 49.9745 265.291 49.9745H257.38V42.176Z" fill="#E32124"/>
<path d="M128.451 14.2412H137.18V21.512H128.451V36.1855C128.451 39.9359 130.459 42.6974 135.24 42.6974H136.381V49.9745H133.336C123.598 49.9745 120.847 43.9453 120.847 37.2307V21.512H108.051V36.1855C108.051 39.9359 110.063 42.6974 114.844 42.6974H115.981V49.9745H112.935C103.202 49.9745 100.444 43.9453 100.444 37.2307V21.512H96.5896V14.2412H100.444V5.33494L108.051 1.12921V14.2412H120.847V5.33494L128.451 1.12921V14.2412" fill="#E32124"/>
<path d="M46.3719 13.5479C43.9667 13.5479 41.5266 14.0136 39.3307 14.9437V1.12921H31.7266V49.9745H39.3307V22.0521C40.8588 21.0921 43.0574 20.5188 45.2068 20.5188C49.9864 20.5188 52.236 23.176 52.236 27.0948V49.9745H59.8334V26.0563C59.8334 18.8437 54.6094 13.5479 46.3719 13.5479" fill="#E32124"/>
<path d="M84.9104 42.8682C83.465 43.6479 81.6359 44.0948 79.8161 44.0948C74.1411 44.0948 72.0078 41.2042 72.0078 37.2172V14.2412H64.4052V37.3573C64.4052 46.3427 69.5983 50.6667 78.8802 50.6667C83.3254 50.6667 88.2478 49.5427 92.5103 47.6974V14.2412H84.9104V42.8682Z" fill="#E32124"/>
<path d="M17.5093 28.7984C16.9828 28.7052 15.2 28.4094 14.6771 28.3136C11.8708 27.8079 9.45729 27.1506 9.45729 24.3214C9.45729 21.8922 12.0016 20.7588 15.1745 20.7588C19.8896 20.7588 24.0255 22.8959 24.4973 23.1318L27.0812 16.312C26.0932 15.7959 21.8812 13.5479 15.2505 13.5479C9.18541 13.5479 1.77084 16.735 1.77084 24.664C1.77084 31.7599 6.83593 34.0375 11.7292 34.8974C12.4026 35.0214 14.5255 35.3839 15.136 35.4896C18.4213 36.0454 20.2188 37.2694 20.2188 39.4198C20.2188 42.1495 17.6625 43.4292 13.7828 43.4292C7.56251 43.4292 3.91615 41.5771 2.86145 41.1438L0 47.8162C0.892188 48.2745 5.13333 50.6667 13.412 50.6667C21.4453 50.6667 27.8921 46.688 27.8921 39.2828C27.8229 32.3896 23.1907 29.7746 17.5093 28.7984Z" fill="#E32124"/>
<path d="M161.013 29.3984H148.193V26.7984C148.193 23.8984 149.649 20.788 154.643 20.788C159.456 20.788 161.013 23.8172 161.013 26.6574V29.3984ZM168.617 25.8266C168.617 19.2907 163.636 13.5454 154.679 13.5454C144.511 13.5454 140.607 19.8948 140.607 25.8266V37.6948C140.607 45.9052 145.853 50.6667 154.679 50.6667C162.464 50.6667 166.505 46.1651 167.705 43.4615L161.287 39.6052C160.739 41.1932 158.197 43.4214 154.729 43.4214C150.028 43.4214 148.22 40.7985 148.22 37.512L148.193 35.5547H168.617V25.8266Z" fill="#E32124"/>
<path d="M173.483 25.8401V49.9745H181.08V26.4896C181.08 24.4385 182.244 20.9333 187.824 20.9333C188.7 20.9333 190.68 21.1828 191.313 21.3016V13.9307C190.628 13.7651 189.057 13.5453 187.435 13.5453C177.771 13.5453 173.483 19.6068 173.483 25.8401" fill="#E32124"/>
<path d="M347.596 16.2693C347.596 15.9864 347.417 15.7213 346.94 15.7213H346.463V16.9255H346.94C347.455 16.9255 347.596 16.6948 347.596 16.3229V16.2693ZM347.525 18.8213C347.489 18.8213 347.455 18.8041 347.436 18.7693L346.868 17.5281H346.463V18.7505C346.463 18.7864 346.443 18.8213 346.409 18.8213H345.699C345.664 18.8213 345.628 18.7864 345.628 18.7505V15.0828H347.047C348.003 15.0828 348.428 15.6864 348.428 16.2521V16.3229C348.428 16.8197 348.163 17.2803 347.684 17.4932L348.393 18.7505C348.411 18.7864 348.393 18.8213 348.357 18.8213H347.525ZM346.94 14.1427C345.328 14.1427 344.157 15.4027 344.157 17.0145C344.157 18.5213 345.345 19.7973 346.94 19.7973C348.552 19.7973 349.705 18.5213 349.705 17.0145C349.705 15.4188 348.447 14.1427 346.94 14.1427ZM346.94 20.6307C344.884 20.6307 343.219 19.0708 343.219 17.0145C343.219 14.9588 344.884 13.3093 346.94 13.3093C348.977 13.3093 350.644 14.976 350.644 17.0145C350.644 19.0708 348.996 20.6307 346.94 20.6307Z" fill="#4E4E55"/>
</g>
<defs>
<clipPath id="clip0_64_7">
<rect width="350.667" height="50.6667" fill="white"/>
</clipPath>
</defs>
</svg>
