<svg width="29" height="29" viewBox="0 0 29 29" fill="none" xmlns="http://www.w3.org/2000/svg">
<path d="M7.31245 10.3749H1.81245C1.63011 10.3749 1.45524 10.4473 1.32631 10.5763C1.19738 10.7052 1.12495 10.8801 1.12495 11.0624V27.5624C1.12495 27.7447 1.19738 27.9196 1.32631 28.0485C1.45524 28.1775 1.63011 28.2499 1.81245 28.2499H7.31245C7.49478 28.2499 7.66965 28.1775 7.79858 28.0485C7.92751 27.9196 7.99995 27.7447 7.99995 27.5624V11.0624C7.99995 10.8801 7.92751 10.7052 7.79858 10.5763C7.66965 10.4473 7.49478 10.3749 7.31245 10.3749ZM6.62495 26.8749H2.49995V11.7499H6.62495V26.8749ZM21.7499 10.3749C20.2581 10.3749 18.8074 10.8672 17.6249 11.776V11.0624C17.6249 10.8801 17.5525 10.7052 17.4236 10.5763C17.2947 10.4473 17.1198 10.3749 16.9374 10.3749H11.4374C11.2551 10.3749 11.0802 10.4473 10.9513 10.5763C10.8224 10.7052 10.7499 10.8801 10.7499 11.0624V27.5624C10.7499 27.7447 10.8224 27.9196 10.9513 28.0485C11.0802 28.1775 11.2551 28.2499 11.4374 28.2499H16.9374C17.1198 28.2499 17.2947 28.1775 17.4236 28.0485C17.5525 27.9196 17.6249 27.7447 17.6249 27.5624V19.9999C17.6249 19.4529 17.8422 18.9283 18.229 18.5415C18.6158 18.1547 19.1404 17.9374 19.6874 17.9374C20.2345 17.9374 20.7591 18.1547 21.1459 18.5415C21.5326 18.9283 21.7499 19.4529 21.7499 19.9999V27.5624C21.7499 27.7447 21.8224 27.9196 21.9513 28.0485C22.0802 28.1775 22.2551 28.2499 22.4374 28.2499H27.9374C28.1198 28.2499 28.2947 28.1775 28.4236 28.0485C28.5525 27.9196 28.6249 27.7447 28.6249 27.5624V17.2499C28.6228 15.4272 27.8977 13.6798 26.6089 12.391C25.3201 11.1021 23.5726 10.3771 21.7499 10.3749ZM27.2499 26.8749H23.1249V19.9999C23.1249 19.0882 22.7628 18.2139 22.1181 17.5692C21.4735 16.9246 20.5991 16.5624 19.6874 16.5624C18.7758 16.5624 17.9014 16.9246 17.2568 17.5692C16.6121 18.2139 16.2499 19.0882 16.2499 19.9999V26.8749H12.1249V11.7499H16.2499V13.404C16.2499 13.5464 16.2941 13.6853 16.3764 13.8015C16.4587 13.9177 16.575 14.0055 16.7094 14.0527C16.8437 14.1 16.9894 14.1043 17.1263 14.0652C17.2632 14.0261 17.3846 13.9455 17.4737 13.8344C18.1798 12.9394 19.1476 12.287 20.2421 11.9683C21.3367 11.6495 22.5034 11.6803 23.5797 12.0563C24.6559 12.4323 25.588 13.1348 26.2459 14.0658C26.9038 14.9968 27.2548 16.1099 27.2499 17.2499V26.8749ZM5.06845 0.752652C4.90689 0.741265 4.74475 0.740347 4.58307 0.749902C4.0685 0.71489 3.55223 0.785904 3.06622 0.958544C2.58021 1.13118 2.13483 1.40177 1.75766 1.75355C1.38048 2.10533 1.07956 2.53081 0.873514 3.00362C0.667472 3.47643 0.560704 3.98652 0.559823 4.50228C0.555553 5.01265 0.656175 5.51845 0.85545 5.98833C1.05473 6.45821 1.34841 6.88214 1.71828 7.23383C2.08815 7.58553 2.52633 7.85749 3.00565 8.03285C3.48496 8.20821 3.99519 8.28324 4.5047 8.25328H4.5432C5.0357 8.28777 5.53016 8.22491 5.99837 8.0683C6.46658 7.9117 6.89935 7.6644 7.27199 7.34054C7.64463 7.01668 7.94982 6.62259 8.17016 6.18078C8.39049 5.73897 8.52165 5.25809 8.55614 4.76559C8.59062 4.27309 8.52777 3.77862 8.37116 3.31042C8.21455 2.84221 7.96726 2.40943 7.6434 2.0368C7.31954 1.66416 6.92545 1.35896 6.48364 1.13863C6.04183 0.918296 5.56095 0.787141 5.06845 0.752652ZM5.02032 6.8824C4.86154 6.89684 4.70171 6.89546 4.5432 6.87828H4.5047C4.17377 6.90315 3.8413 6.85875 3.5285 6.74791C3.2157 6.63707 2.92945 6.46222 2.68802 6.23454C2.4466 6.00685 2.2553 5.73132 2.12635 5.42554C1.99739 5.11976 1.93362 4.79045 1.93909 4.45864C1.94456 4.12683 2.01916 3.7998 2.15812 3.49844C2.29709 3.19708 2.49736 2.92801 2.74616 2.7084C2.99497 2.4888 3.28682 2.32348 3.60311 2.22301C3.91939 2.12254 4.25315 2.08913 4.58307 2.1249C5.21396 2.06692 5.84203 2.26193 6.32914 2.66703C6.81624 3.07213 7.12246 3.65414 7.18045 4.28503C7.23843 4.91591 7.04342 5.54399 6.63832 6.03109C6.23322 6.51819 5.65121 6.82442 5.02032 6.8824Z" fill="#494C50" fill-opacity="0.5"/>
</svg>
