<svg width="34" height="34" viewBox="0 0 34 34" fill="none" xmlns="http://www.w3.org/2000/svg">
<path d="M24.3788 1H9.62123C4.85941 1 1 4.86009 1 9.62123V24.3788C1 29.1406 4.86009 33 9.62192 33H24.3781C29.1399 33 33 29.1399 33 24.3781V9.62123C33 4.85941 29.1399 1 24.3781 1H24.3788Z" stroke="#494C50" stroke-opacity="0.5" stroke-width="1.36834" stroke-miterlimit="10"/>
<path d="M16.9999 24.7242C21.2659 24.7242 24.7242 21.2659 24.7242 16.9999C24.7242 12.7339 21.2659 9.27563 16.9999 9.27563C12.7339 9.27563 9.27563 12.7339 9.27563 16.9999C9.27563 21.2659 12.7339 24.7242 16.9999 24.7242Z" stroke="#494C50" stroke-opacity="0.5" stroke-width="1.36834" stroke-miterlimit="10"/>
<path d="M26.3794 9.27584C27.2934 9.27584 28.0344 8.53486 28.0344 7.62083C28.0344 6.70679 27.2934 5.96582 26.3794 5.96582C25.4653 5.96582 24.7244 6.70679 24.7244 7.62083C24.7244 8.53486 25.4653 9.27584 26.3794 9.27584Z" fill="#494C50" fill-opacity="0.5"/>
</svg>
