<svg width="51" height="49" viewBox="0 0 51 49" fill="none" xmlns="http://www.w3.org/2000/svg">
<g opacity="0.5" clip-path="url(#clip0_34_788)">
<path d="M50.0086 24.0947C50.0086 20.5602 45.8969 17.2101 39.5919 15.1339C41.0479 8.21817 40.4014 2.71407 37.5515 0.951241C36.861 0.534922 36.0794 0.325365 35.2881 0.344367V2.76742C35.7528 2.76742 36.1266 2.86746 36.4404 3.05196C37.8138 3.90113 38.4107 7.12891 37.946 11.2837C37.8344 12.3062 37.6527 13.3822 37.4297 14.4803C35.3183 13.9326 33.1755 13.5368 31.0152 13.2954C29.7283 11.3843 28.3244 9.56784 26.8126 7.85804C30.1066 4.56359 33.1981 2.75853 35.3005 2.75853V0.333252C32.5208 0.333252 28.884 2.46509 25.2059 6.16191C21.5299 2.48954 17.8911 0.377712 15.1134 0.377712V2.80076C17.2055 2.80076 20.3073 4.59693 23.6013 7.86917C22.1866 9.46971 20.7719 11.2837 19.4275 13.2954C17.2629 13.5341 15.1162 13.9338 13.0028 14.4914C12.7794 13.4507 12.6037 12.3986 12.4762 11.3392C12.0012 7.18226 12.5877 3.95449 13.9527 3.09642C14.2543 2.9008 14.6488 2.81188 15.1134 2.81188V0.388827C14.2667 0.388827 13.4964 0.58445 12.8314 0.995701C9.99176 2.75853 9.35569 8.24929 10.8199 15.145C4.53557 17.2346 0.444458 20.5713 0.444458 24.0947C0.444458 27.6293 4.55622 30.9792 10.8612 33.0533C9.40526 39.9712 10.0517 45.4754 12.9016 47.236C13.5583 47.6494 14.3266 47.845 15.1733 47.845C17.953 47.845 21.5898 45.7132 25.2679 42.0164C28.9439 45.691 32.5806 47.8006 35.3604 47.8006C36.1578 47.8187 36.9453 47.6086 37.6424 47.1916C40.482 45.4309 41.1181 39.9401 39.6539 33.0444C45.9175 30.9681 50.0086 27.6182 50.0086 24.0947ZM36.8535 16.8411C36.4611 18.2946 36.0062 19.7278 35.4905 21.1359C34.6462 19.3682 33.7191 17.6475 32.7129 15.9808C34.1481 16.2098 35.5318 16.4921 36.8556 16.8411H36.8535ZM32.2275 28.4228C31.4711 29.8443 30.6588 31.2305 29.7927 32.5776C26.7615 32.8652 23.7128 32.8689 20.6811 32.5887C18.9422 29.9149 17.4213 27.0841 16.1356 24.128C17.4193 21.165 18.9337 18.3244 20.6626 15.6362C23.693 15.348 26.7409 15.3437 29.772 15.6229C30.6105 16.9168 31.4304 18.2994 32.2172 19.7577C32.9854 21.1804 33.6835 22.6253 34.3195 24.0836C33.6764 25.5596 32.9786 27.0071 32.2275 28.4228ZM35.4905 27.0091C36.0357 28.4651 36.5025 29.9234 36.8845 31.3373C35.5628 31.6861 34.1668 31.9796 32.7232 32.2063C33.7253 30.5245 34.6489 28.79 35.4905 27.0091ZM25.2472 38.613C24.3076 37.5682 23.3679 36.4056 22.4385 35.1319C23.3473 35.1763 24.2766 35.2096 25.2162 35.2096C26.1662 35.2096 27.1059 35.1874 28.0248 35.1319C27.1162 36.4056 26.1765 37.5682 25.2472 38.613ZM17.73 32.2063C16.3375 31.9892 14.9551 31.7028 13.5873 31.3484C13.961 29.9456 14.4257 28.4985 14.9502 27.0535C15.3654 27.9205 15.8012 28.7918 16.2761 29.6633C16.751 30.5325 17.2343 31.3817 17.73 32.2063ZM25.1956 9.57641C26.1353 10.6212 27.075 11.7838 28.0042 13.0576C27.0956 13.0131 26.1662 12.9798 25.2265 12.9798C24.2767 12.9798 23.337 13.002 22.4179 13.0576C23.3266 11.7838 24.2662 10.6212 25.1956 9.57641ZM17.7197 15.983C16.7178 17.6612 15.7941 19.3921 14.9523 21.1693C14.422 19.752 13.9568 18.3076 13.5583 16.8411C14.88 16.5032 16.2761 16.2098 17.7197 15.983ZM8.57711 29.5966C5.00024 27.9561 2.68724 25.802 2.68724 24.0947C2.68724 22.3875 5.00024 20.2223 8.57711 18.5929C9.44449 18.1905 10.3945 17.8304 11.3754 17.4947C11.9516 19.6243 12.7095 21.8428 13.6471 24.1169C12.7619 26.2559 12.0133 28.4573 11.4064 30.7059C10.447 30.3861 9.5028 30.0159 8.57711 29.5966ZM14.0126 45.1352C12.6393 44.2905 12.0425 41.0584 12.5071 36.9057C12.6187 35.8832 12.8004 34.8051 13.0234 33.7069C15.0019 34.2293 17.1641 34.6317 19.4379 34.8939C20.7249 36.8051 22.1289 38.6215 23.6405 40.3313C20.3466 43.6259 17.2549 45.4309 15.1527 45.4309C14.7561 45.4356 14.3644 45.3348 14.0126 45.1375V45.1352ZM37.977 36.8502C38.4519 41.0049 37.8655 44.2349 36.5003 45.093C36.1988 45.2886 35.8044 45.3754 35.3398 45.3754C33.2477 45.3754 30.1459 43.5814 26.8518 40.3069C28.3572 38.6043 29.7517 36.792 31.0256 34.8828C33.1902 34.6441 35.337 34.2445 37.4503 33.6869C37.6836 34.7851 37.8634 35.8388 37.977 36.8502ZM41.8656 29.5966C40.9983 29.9989 40.0483 30.3591 39.0673 30.6947C38.4498 28.4347 37.6909 26.2222 36.7957 24.0724C37.725 21.8118 38.4706 19.6042 39.0364 17.4836C39.9988 17.8043 40.9465 18.1745 41.876 18.5929C45.4529 20.2334 47.7659 22.3875 47.7659 24.0947C47.7556 25.802 45.4426 27.9672 41.8656 29.5966Z" fill="black"/>
<path d="M25.2161 29.0653C26.4408 29.0653 27.6152 28.5417 28.4812 27.6096C29.3473 26.6773 29.8337 25.413 29.8337 24.0948C29.8337 22.7765 29.3473 21.5122 28.4812 20.58C27.6152 19.6479 26.4408 19.1241 25.2161 19.1241C23.9913 19.1241 22.8168 19.6479 21.9507 20.58C21.0848 21.5122 20.5983 22.7765 20.5983 24.0948C20.5983 25.413 21.0848 26.6773 21.9507 27.6096C22.8168 28.5417 23.9913 29.0653 25.2161 29.0653Z" fill="black"/>
</g>
<defs>
<clipPath id="clip0_34_788">
<rect width="50.2581" height="48.9355" fill="white"/>
</clipPath>
</defs>
</svg>
