<svg width="55" height="55" viewBox="0 0 55 55" fill="none" xmlns="http://www.w3.org/2000/svg">
<g opacity="0.5">
<path d="M38.4098 22.5939C38.4098 22.5939 35.3008 30.7414 35.0207 31.6316C34.9167 30.7278 31.6316 13.5563 31.6316 13.5563C25.6961 13.5563 23.1226 17.0855 21.4642 21.4642C21.4642 21.4642 17.3001 31.8417 16.9454 32.7613C16.916 31.9298 15.8157 22.5939 15.8157 22.5939C15.4768 17.2369 10.8202 13.6015 6.77808 13.6015L11.2969 42.9286C17.499 42.8992 21.9613 39.3994 23.7236 35.0207C23.7236 35.0207 26.9772 25.3052 27.1128 24.8533C27.1421 25.26 29.3722 42.9286 29.3722 42.9286C35.6036 42.9286 39.9778 39.2548 41.7989 35.0207L49.7068 13.5563C43.5341 13.5427 40.0976 18.1994 38.4098 22.5939Z" stroke="#494C50" stroke-width="4.51882" stroke-linecap="round" stroke-linejoin="round"/>
</g>
</svg>
