<svg width="31" height="28" viewBox="0 0 31 28" fill="none" xmlns="http://www.w3.org/2000/svg">
<path d="M30.3746 0.433997C30.1291 0.221985 29.8305 0.0808838 29.5109 0.0258629C29.1912 -0.029158 28.8626 0.00398249 28.5604 0.121722L1.12476 10.9027C0.768214 11.0445 0.466895 11.2975 0.265505 11.6242C0.0641144 11.9508 -0.026618 12.3337 0.00676854 12.716C0.040155 13.0982 0.195881 13.4596 0.450845 13.7463C0.705809 14.0331 1.04643 14.2301 1.42217 14.308L8.87218 15.8099V24.9997C8.86766 25.3537 8.97034 25.7008 9.16673 25.9954C9.36313 26.29 9.64405 26.5183 9.97258 26.6503C10.195 26.7388 10.4321 26.7842 10.6715 26.7841C10.9038 26.7844 11.1338 26.7385 11.3482 26.6492C11.5626 26.5598 11.7572 26.4288 11.9206 26.2637L16.1735 22.0108L22.4487 27.5276C22.7703 27.8188 23.1897 27.978 23.6235 27.9738C23.8105 27.9733 23.9962 27.9432 24.1737 27.8845C24.4661 27.7886 24.7289 27.6193 24.9372 27.3928C25.1455 27.1663 25.2922 26.8902 25.3633 26.5908L30.9545 2.17382C31.0277 1.85854 31.0123 1.52917 30.91 1.22211C30.8076 0.915062 30.6223 0.642301 30.3746 0.433997V0.433997ZM1.18424 12.6128C1.16655 12.4839 1.19388 12.3528 1.26161 12.2418C1.32934 12.1307 1.43332 12.0464 1.556 12.0031L26.7165 2.12921L9.33315 14.6797L1.66009 13.1481C1.53229 13.125 1.41593 13.0597 1.32965 12.9627C1.24337 12.8656 1.19217 12.7424 1.18424 12.6128ZM11.073 25.4161C10.9922 25.5 10.888 25.5577 10.7739 25.5816C10.6598 25.6055 10.5412 25.5944 10.4336 25.5499C10.3239 25.5055 10.23 25.4295 10.1638 25.3315C10.0975 25.2335 10.062 25.118 10.0618 24.9997V16.6277L15.2813 21.2227L11.073 25.4161ZM29.7947 1.92103L24.2034 26.3232C24.1811 26.4243 24.1321 26.5177 24.0615 26.5936C23.9909 26.6694 23.9013 26.7249 23.8019 26.7544C23.706 26.7889 23.6023 26.796 23.5025 26.775C23.4028 26.754 23.3108 26.7057 23.2369 26.6354L10.4187 15.3638L29.7054 1.43031C29.7541 1.50119 29.7871 1.58155 29.8025 1.66612C29.8179 1.7507 29.8152 1.83756 29.7947 1.92103V1.92103Z" fill="#494C50" fill-opacity="0.5"/>
</svg>
