<svg width="32" height="29" viewBox="0 0 32 29" fill="none" xmlns="http://www.w3.org/2000/svg">
<path d="M31.925 4.13128C31.8576 3.96889 31.7439 3.82995 31.598 3.73181C31.4521 3.63367 31.2806 3.58068 31.1048 3.57946H26.3919C25.8094 2.50955 24.9525 1.61405 23.9093 0.984981C22.8661 0.35591 21.6742 0.0159591 20.4561 6.54869e-05C18.6258 -0.00789129 16.867 0.709511 15.5645 1.99527C14.262 3.28102 13.5218 5.03041 13.5061 6.86057V8.1581C7.18248 6.65177 1.96253 1.50639 1.90287 1.46165C1.78789 1.34815 1.64433 1.26789 1.48742 1.2294C1.33051 1.1909 1.1661 1.19561 1.01165 1.24302C0.857196 1.29042 0.718459 1.37876 0.610162 1.49865C0.501865 1.61855 0.428047 1.76553 0.396544 1.92399C-0.900986 9.02312 1.23174 13.7658 3.24514 16.4951C4.313 17.9565 5.62476 19.2228 7.12282 20.2385C4.81113 23.0424 1.00802 24.504 0.963282 24.5189C0.836215 24.5657 0.721661 24.6412 0.628536 24.7395C0.535411 24.8378 0.466228 24.9562 0.426372 25.0856C0.384052 25.2119 0.371455 25.3462 0.389563 25.4782C0.407671 25.6101 0.455996 25.7361 0.530771 25.8463C0.679913 26.07 2.1415 28.0386 7.24213 28.0386C17.6373 28.0386 26.3322 19.9999 27.1674 9.67934L31.7311 5.1007C31.8605 4.9795 31.9487 4.82089 31.9835 4.64707C32.0183 4.47325 31.9978 4.29291 31.925 4.13128V4.13128ZM25.6611 8.65026C25.506 8.80503 25.4153 9.01292 25.4076 9.23192C24.7961 18.777 16.817 26.2489 7.24213 26.2489C5.16907 26.2489 3.84171 25.891 3.05126 25.5331C4.73656 24.683 7.49567 23.0126 9.18097 20.4772C9.24811 20.3721 9.29329 20.2545 9.3138 20.1314C9.3343 20.0084 9.3297 19.8825 9.30028 19.7613C9.26849 19.6373 9.21087 19.5214 9.1312 19.4211C9.05153 19.3209 8.9516 19.2386 8.83794 19.1796C8.80812 19.1796 6.571 18.0163 4.63216 15.3616C2.32047 12.1998 1.41071 8.33707 1.91779 3.87774C4.09525 5.72709 8.7932 9.217 14.2518 10.1268C14.3803 10.1512 14.5125 10.1466 14.639 10.1135C14.7655 10.0803 14.8831 10.0194 14.9831 9.93511C15.0831 9.85083 15.163 9.74532 15.2171 9.62626C15.2712 9.5072 15.2981 9.37758 15.2958 9.24683V6.86057C15.3076 5.50902 15.8538 4.21708 16.8151 3.26696C17.7764 2.31684 19.0746 1.78577 20.4262 1.78976C21.4028 1.80386 22.3549 2.09806 23.1692 2.6374C23.9835 3.17674 24.6258 3.93854 25.0198 4.83225C25.0878 4.99301 25.2022 5.12991 25.3482 5.22552C25.4943 5.32113 25.6655 5.37113 25.8401 5.36915H28.9422L25.6611 8.65026Z" fill="#494C50" fill-opacity="0.5"/>
</svg>
