<svg width="44" height="49" viewBox="0 0 44 49" fill="none" xmlns="http://www.w3.org/2000/svg">
<path opacity="0.5" d="M0 0V48.1419H43.5129V0H0ZM23.6803 37.5456C23.6803 42.2308 21.1938 44.3697 17.5714 44.3697C14.2987 44.3697 12.4042 42.5007 11.433 40.2329L14.7649 38.0081C15.4066 39.2649 15.9895 40.3292 17.3974 40.3292C18.737 40.3292 19.5917 39.748 19.5917 37.4819V22.104H23.6803V37.5456ZM33.3526 44.3697C29.5545 44.3697 27.0977 42.3718 25.9026 39.748L29.2345 37.6212C30.1093 39.2013 31.2547 40.3722 33.2656 40.3722C34.9549 40.3722 36.0442 39.4368 36.0442 38.137C36.0442 36.5896 34.9362 36.0411 33.062 35.1281L32.0426 34.645C29.0899 33.2592 27.138 31.5072 27.138 27.8209C27.138 24.4252 29.4785 21.8461 33.1211 21.8461C35.7241 21.8461 37.5889 22.8451 38.93 25.4671L35.7443 27.7246C35.045 26.3388 34.2866 25.7903 33.1117 25.7903C31.9182 25.7903 31.1599 26.6294 31.1599 27.7246C31.1599 29.0794 31.9182 29.6262 33.6758 30.4756L34.6953 30.9587C38.1733 32.6024 40.1251 34.2908 40.1251 38.0717C40.1251 42.1345 37.23 44.368 33.3542 44.368L33.3526 44.3697Z" fill="black"/>
</svg>
