<svg width="49" height="51" viewBox="0 0 49 51" fill="none" xmlns="http://www.w3.org/2000/svg">
<g opacity="0.5" clip-path="url(#clip0_34_795)">
<path d="M40.4096 1.5293H9.31739C8.1974 1.52793 7.08814 1.7475 6.05313 2.17546C5.01813 2.60342 4.07772 3.23137 3.28576 4.02332C2.49381 4.81527 1.86586 5.75569 1.4379 6.79069C1.00994 7.82569 0.790369 8.93495 0.791755 10.0549V39.9391C0.790369 41.0591 1.00994 42.1683 1.4379 43.2034C1.86586 44.2383 2.49381 45.1788 3.28576 45.9707C4.07772 46.7627 5.01813 47.3905 6.05313 47.8185C7.08814 48.2465 8.1974 48.466 9.31739 48.4647H40.4096C41.5296 48.466 42.6388 48.2465 43.6739 47.8185C44.7088 47.3905 45.6493 46.7627 46.4412 45.9707C47.2332 45.1788 47.861 44.2383 48.289 43.2034C48.717 42.1683 48.9365 41.0591 48.9352 39.9391V10.0549C48.9365 8.93495 48.717 7.82569 48.289 6.79069C47.861 5.75569 47.2332 4.81527 46.4412 4.02332C45.6493 3.23137 44.7088 2.60342 43.6739 2.17546C42.6388 1.7475 41.5296 1.52793 40.4096 1.5293ZM46.9057 39.1568C46.9113 40.1133 46.7277 41.0614 46.3656 41.9469C46.0035 42.8322 45.4699 43.6373 44.7957 44.3158C44.1213 44.9943 43.3197 45.5328 42.4365 45.9004C41.5534 46.2679 40.6064 46.4574 39.6498 46.4578H10.0786C8.14872 46.455 6.29865 45.687 4.934 44.3224C3.56935 42.9578 2.80146 41.1077 2.79867 39.1778V10.8147C2.80146 8.88477 3.56935 7.0347 4.934 5.67005C6.29865 4.3054 8.14872 3.53751 10.0786 3.53472H39.6257C41.5564 3.53512 43.4079 4.30224 44.7731 5.66742C46.1382 7.03259 46.9053 8.88404 46.9057 10.8147V39.1568ZM19.8259 23.4925L25.445 34.2824C25.5472 34.4464 25.4856 34.6029 25.3261 34.6029H21.8313C21.6131 34.6029 21.5109 34.5487 21.416 34.344C20.1327 31.6962 18.8224 29.0484 17.482 26.2036H17.4443C16.2109 28.943 14.9384 31.6649 13.6276 34.3681C13.5358 34.5246 13.4336 34.5862 13.268 34.5862H9.95978C9.75668 34.5862 9.74165 34.4223 9.84395 34.3049L15.3367 23.8356L10.0245 13.2428C9.89811 13.0789 10.0245 12.96 10.1403 12.96H13.5885C13.7916 12.96 13.8714 13.0006 13.9495 13.1782C15.2298 15.847 16.4809 18.5296 17.7031 21.2254H17.7407C18.9081 18.5776 20.1945 15.8275 21.4311 13.2022C21.5335 13.0382 21.5951 12.9359 21.7922 12.9359H25.0191C25.1831 12.9359 25.2464 13.0623 25.1456 13.2188L19.8259 23.4925ZM26.4303 26.7602C26.4303 22.0905 29.534 18.4376 34.47 18.4376C34.8929 18.4376 35.1124 18.4376 35.5126 18.4782V13.1661C35.5126 13.0397 35.6134 12.9615 35.7158 12.9615H38.8811C39.0451 12.9615 39.0857 13.0232 39.0857 13.118V31.5398C39.0857 32.0799 39.0857 32.7614 39.1879 33.4971C39.1879 33.6234 39.1473 33.6611 39.0239 33.7257C37.42 34.4878 35.6667 34.8841 33.8909 34.8856C29.534 34.9083 26.4303 32.2213 26.4303 26.7602ZM35.5141 21.627C35.1436 21.4854 34.7492 21.4165 34.3527 21.424C31.8238 21.424 30.0605 23.3738 30.0605 26.6038C30.0605 30.2942 31.8614 31.7745 34.1346 31.7745C34.6114 31.7745 35.1381 31.7203 35.5141 31.5563V21.627Z" fill="black"/>
</g>
<defs>
<clipPath id="clip0_34_795">
<rect width="48.9355" height="50.2581" fill="white"/>
</clipPath>
</defs>
</svg>
